#N canvas 135 92 1134 664 12;
#X obj 673 515 hip~ 15;
#X obj 740 326 line~;
#X obj 750 235 delay 100;
#X obj 696 170 bng 50 50 25 0 empty empty empty 0 -10 0 12 #fcfcfc
#000000 #000000;
#X obj 691 89 r note;
#X obj 692 121 mtof;
#X obj 696 250 float;
#X obj 791 266 float;
#X msg 698 284 1 \$1;
#X obj 983 30 vsl 19 162 2 1000 0 1 empty empty ATTACK 0 -9 0 12 #fcfcfc
#000000 #000000 1700 1;
#X obj 931 42 vsl 19 162 50 2000 0 1 empty empty RELEASE 0 -9 0 12
#fcfcfc #000000 #000000 2600 1;
#X msg 791 293 0 \$1;
#X obj 687 326 osc~;
#X obj 377 406 osc~;
#X obj 651 279 +~;
#X obj 469 337 line~;
#X obj 479 246 delay 100;
#X obj 425 181 bng 50 50 25 0 empty empty empty 0 -10 0 12 #fcfcfc
#000000 #000000;
#X obj 425 261 float;
#X obj 520 277 float;
#X msg 427 295 1 \$1;
#X obj 488 61 vsl 19 162 2 1000 0 1 empty empty ATTACK 0 -9 0 12 #fcfcfc
#000000 #000000 0 1;
#X obj 546 61 vsl 19 162 50 2000 0 1 empty empty RELEASE 0 -9 0 12
#fcfcfc #000000 #000000 3100 1;
#X msg 520 304 0 \$1;
#X obj 616 258 *~;
#X obj 601 61 vsl 19 162 0 2000 0 1 empty empty FM\\\ AMOUNT 0 -9 0
12 #fcfcfc #000000 #000000 1800 1;
#X obj 366 258 r note;
#X obj 373 292 mtof;
#X obj 124 373 osc~;
#X obj 191 342 line~;
#X obj 201 251 delay 100;
#X obj 147 186 bng 50 50 25 0 empty empty empty 0 -10 0 12 #fcfcfc
#000000 #000000;
#X obj 147 266 float;
#X obj 242 282 float;
#X msg 149 300 1 \$1;
#X obj 207 60 vsl 19 162 2 1000 0 1 empty empty ATTACK 0 -9 0 12 #fcfcfc
#000000 #000000 0 1;
#X obj 265 60 vsl 19 162 50 2000 0 1 empty empty RELEASE 0 -9 0 12
#fcfcfc #000000 #000000 600 1;
#X msg 242 309 0 \$1;
#X obj 167 418 *~;
#X obj 258 361 *~;
#X obj 321 61 vsl 19 162 0 2000 0 1 empty empty FM\\\ AMOUNT 0 -9 0
12 #fcfcfc #000000 #000000 2600 1;
#X obj 88 263 r note;
#X obj 95 297 mtof;
#X obj 274 389 +~;
#X obj 109 335 * 4;
#X obj 444 429 *~;
#X obj 386 330 * 2;
#X obj 712 366 *~;
#X obj 954 685 line~;
#X obj 930 542 tgl 19 0 empty empty empty 0 -10 0 12 #fcfcfc #000000
#000000 0 1;
#X obj 928 469 tgl 19 0 empty empty empty 0 -10 0 12 #fcfcfc #000000
#000000 0 1;
#X obj 931 579 sel 1 0;
#X obj 958 714 *~ 4;
#X obj 759 519 hip~ 15;
#X msg 937 616 1 50;
#X msg 985 616 0 50;
#X obj 648 76 inlet;
#X obj 380 154 inlet;
#X obj 93 108 inlet;
#X obj 923 511 metro 50;
#X obj 663 604 outlet~;
#X obj 794 606 outlet~;
#X obj 862 92 loadbang;
#X floatatom 862 250 5 0 0 0 - - - 0;
#X msg 862 116 352;
#X obj 778 120 loadbang;
#X msg 778 144 100;
#X obj 627 116 loadbang;
#X floatatom 632 201 5 0 0 0 - - - 0;
#X msg 627 140 223;
#X obj 563 123 loadbang;
#X msg 572 158 425;
#X obj 513 75 loadbang;
#X msg 513 99 2;
#X obj 354 76 loadbang;
#X msg 355 100 322;
#X obj 290 75 loadbang;
#X msg 290 99 122;
#X obj 230 124 loadbang;
#X msg 231 152 2;
#X obj 569 435 delread~ chorus03;
#X obj 562 411 delwrite~ chorus03 2;
#X obj 787 443 vd~ chorus04;
#X obj 795 419 delwrite~ chorus04 1000;
#X obj 669 490 *~ 0.6;
#X obj 756 491 *~ 0.6;
#X connect 0 0 60 0;
#X connect 1 0 47 1;
#X connect 2 0 7 0;
#X connect 3 0 2 0;
#X connect 3 0 6 0;
#X connect 4 0 5 0;
#X connect 5 0 3 0;
#X connect 5 0 14 1;
#X connect 6 0 8 0;
#X connect 7 0 11 0;
#X connect 8 0 1 0;
#X connect 9 0 6 1;
#X connect 9 0 2 1;
#X connect 10 0 7 1;
#X connect 10 0 63 0;
#X connect 11 0 1 0;
#X connect 12 0 47 0;
#X connect 13 0 45 0;
#X connect 14 0 12 0;
#X connect 15 0 45 1;
#X connect 16 0 19 0;
#X connect 17 0 16 0;
#X connect 17 0 18 0;
#X connect 18 0 20 0;
#X connect 19 0 23 0;
#X connect 20 0 15 0;
#X connect 21 0 18 1;
#X connect 21 0 16 1;
#X connect 22 0 19 1;
#X connect 23 0 15 0;
#X connect 24 0 14 0;
#X connect 25 0 24 1;
#X connect 26 0 27 0;
#X connect 27 0 17 0;
#X connect 27 0 46 0;
#X connect 28 0 38 0;
#X connect 29 0 38 1;
#X connect 30 0 33 0;
#X connect 31 0 30 0;
#X connect 31 0 32 0;
#X connect 32 0 34 0;
#X connect 33 0 37 0;
#X connect 34 0 29 0;
#X connect 35 0 32 1;
#X connect 35 0 30 1;
#X connect 35 0 68 0;
#X connect 36 0 33 1;
#X connect 37 0 29 0;
#X connect 38 0 39 0;
#X connect 39 0 43 0;
#X connect 40 0 39 1;
#X connect 41 0 42 0;
#X connect 42 0 31 0;
#X connect 42 0 44 0;
#X connect 43 0 13 0;
#X connect 44 0 28 0;
#X connect 45 0 24 0;
#X connect 46 0 43 1;
#X connect 47 0 81 0;
#X connect 47 0 83 0;
#X connect 47 0 84 0;
#X connect 47 0 85 0;
#X connect 48 0 52 0;
#X connect 49 0 51 0;
#X connect 50 0 59 0;
#X connect 51 0 54 0;
#X connect 51 1 55 0;
#X connect 52 0 82 0;
#X connect 53 0 61 0;
#X connect 54 0 48 0;
#X connect 55 0 48 0;
#X connect 56 0 5 0;
#X connect 57 0 27 0;
#X connect 58 0 42 0;
#X connect 59 0 49 0;
#X connect 62 0 64 0;
#X connect 64 0 7 1;
#X connect 65 0 66 0;
#X connect 66 0 2 1;
#X connect 66 0 6 1;
#X connect 67 0 69 0;
#X connect 69 0 24 1;
#X connect 70 0 71 0;
#X connect 71 0 19 1;
#X connect 72 0 73 0;
#X connect 73 0 18 1;
#X connect 73 0 16 1;
#X connect 74 0 75 0;
#X connect 75 0 39 1;
#X connect 76 0 77 0;
#X connect 77 0 33 1;
#X connect 78 0 79 0;
#X connect 79 0 30 1;
#X connect 79 0 32 1;
#X connect 80 0 84 0;
#X connect 82 0 85 0;
#X connect 84 0 0 0;
#X connect 85 0 53 0;
