#N canvas 64 25 1046 847 12;
#X obj 196 21 adc~, f 8;
#X obj 190 578 mtof;
#X obj 347 538 + 7;
#X obj 344 578 mtof;
#X obj 342 619 osc~;
#X obj 342 694 *~;
#X obj 427 576 mtof;
#X obj 425 617 osc~;
#X obj 484 582 mtof;
#X obj 488 620 osc~;
#X obj 554 638 tgl 15 0 empty empty empty 17 7 0 10 #fcfcfc #000000
#000000 0 1;
#X text 552 619 chord;
#X obj 191 535 + 7;
#X obj 172 344 hip~ 100;
#X obj 425 537 + 12;
#X obj 169 280 *~;
#X obj 227 257 tgl 15 0 empty empty empty 17 7 0 10 #fcfcfc #000000
#000000 0 1;
#X obj 189 625 osc~;
#X obj 602 545 mtof;
#X obj 605 582 phasor~;
#X obj 666 690 tgl 15 0 empty empty empty 17 7 0 10 #fcfcfc #000000
#000000 0 1;
#X msg 899 57 \; pd dsp \$1;
#X obj 898 20 tgl 15 0 empty empty empty 17 7 0 10 #fcfcfc #000000
#000000 0 1;
#X floatatom 82 362 5 0 0 0 - - - 0;
#X obj 68 590 spigot;
#X obj 37 435 > 30;
#X text 126 730 FM Vol;
#X obj 84 438 spigot;
#X obj 86 408 < 128;
#X obj 592 512 - 12;
#X obj 518 689 hip~ 300;
#X obj 190 669 *~ 0.8;
#X obj 490 541 - 12;
#X obj 344 666 *~ 0.26;
#X obj 625 76 adc~ 5;
#X obj 17 121 dac~ 27 28 29 30;
#X obj 441 239 > 0.55;
#X obj 428 271 > 0.52;
#X obj 261 835 *~ 0.5;
#X obj 56 704 221130_FMC;
#X obj 271 865 dac~;
#X obj 597 15 loadbang;
#X obj 594 109 snapshot~;
#X obj 683 108 s~ a5;
#X obj 221 138 s~ a1;
#X obj 407 19 loadbang;
#X obj 404 113 snapshot~;
#X obj 267 3 loadbang;
#X obj 270 103 snapshot~;
#X obj 295 64 adc~ 3;
#X obj 441 76 adc~ 4;
#X obj 344 88 s~ a3;
#X obj 493 112 s~ a4;
#X obj 384 717 r~ a1;
#X obj 268 39 metro 5;
#X obj 408 55 metro 5;
#X obj 598 51 metro 5;
#X obj 260 765 lop~ 3000;
#X obj 260 787 lop~ 3000;
#X obj 261 810 lop~ 3000;
#X obj 520 716 *~ 0.26;
#X obj 173 374 lop~ 200;
#X obj 282 313 loadbang;
#X msg 301 351 minpower 60;
#X msg 284 388 maxfreq 200;
#X obj 603 616 lop~ 600;
#X obj 596 644 lop~ 600;
#X obj 160 166 lop~ 400;
#X obj 163 195 lop~ 400;
#X obj 163 219 hip~ 80;
#X obj 163 243 hip~ 80;
#X obj 196 45 lop~ 400;
#X obj 196 69 hip~ 80;
#X obj 173 421 sigmund~ -hop 8192 pitch env;
#X obj 269 222 > 0.44;
#X obj 332 228 > 0.48;
#X obj 269 669 tgl 15 0 empty empty empty 17 7 0 10 #fcfcfc #000000
#000000 0 1;
#X obj 190 693 *~;
#X obj 502 183 > 0.53;
#X obj 56 772 *~;
#X obj 98 747 tgl 15 0 empty empty empty 17 7 0 10 #fcfcfc #000000
#000000 0 1;
#X obj 192 458 clip 20 60;
#X obj 485 753 *~;
#X connect 0 0 35 0;
#X connect 0 0 67 0;
#X connect 0 0 71 0;
#X connect 1 0 17 0;
#X connect 2 0 3 0;
#X connect 3 0 4 0;
#X connect 4 0 33 0;
#X connect 5 0 57 0;
#X connect 6 0 7 0;
#X connect 7 0 33 0;
#X connect 8 0 9 0;
#X connect 9 0 33 0;
#X connect 10 0 5 1;
#X connect 12 0 1 0;
#X connect 13 0 61 0;
#X connect 14 0 6 0;
#X connect 15 0 13 0;
#X connect 16 0 15 1;
#X connect 17 0 31 0;
#X connect 18 0 19 0;
#X connect 19 0 65 0;
#X connect 20 0 82 1;
#X connect 22 0 21 0;
#X connect 24 0 39 0;
#X connect 24 0 39 1;
#X connect 24 0 39 2;
#X connect 25 0 24 1;
#X connect 27 0 25 0;
#X connect 28 0 27 1;
#X connect 29 0 18 0;
#X connect 30 0 60 0;
#X connect 31 0 77 0;
#X connect 32 0 8 0;
#X connect 33 0 5 0;
#X connect 34 0 42 0;
#X connect 34 0 43 0;
#X connect 36 0 20 0;
#X connect 37 0 10 0;
#X connect 38 0 40 0;
#X connect 38 0 40 1;
#X connect 39 0 79 0;
#X connect 41 0 56 0;
#X connect 45 0 55 0;
#X connect 46 0 78 0;
#X connect 47 0 54 0;
#X connect 48 0 36 0;
#X connect 48 0 37 0;
#X connect 48 0 74 0;
#X connect 48 0 75 0;
#X connect 49 0 48 0;
#X connect 49 0 51 0;
#X connect 49 0 35 1;
#X connect 50 0 46 0;
#X connect 50 0 52 0;
#X connect 50 0 35 2;
#X connect 53 0 57 0;
#X connect 54 0 48 0;
#X connect 55 0 46 0;
#X connect 56 0 42 0;
#X connect 57 0 58 0;
#X connect 58 0 59 0;
#X connect 59 0 38 0;
#X connect 60 0 82 0;
#X connect 61 0 73 0;
#X connect 62 0 63 0;
#X connect 62 0 64 0;
#X connect 63 0 73 0;
#X connect 64 0 73 0;
#X connect 65 0 66 0;
#X connect 66 0 30 0;
#X connect 67 0 68 0;
#X connect 68 0 69 0;
#X connect 69 0 70 0;
#X connect 70 0 15 0;
#X connect 71 0 72 0;
#X connect 72 0 44 0;
#X connect 73 0 23 0;
#X connect 73 0 27 0;
#X connect 73 0 28 0;
#X connect 73 0 81 0;
#X connect 74 0 16 0;
#X connect 75 0 76 0;
#X connect 76 0 77 1;
#X connect 77 0 57 0;
#X connect 78 0 80 0;
#X connect 79 0 57 0;
#X connect 80 0 79 1;
#X connect 81 0 12 0;
#X connect 81 0 2 0;
#X connect 81 0 14 0;
#X connect 81 0 32 0;
#X connect 81 0 29 0;
#X connect 81 0 24 0;
#X connect 82 0 57 0;
