#N canvas 482 25 958 847 12;
#X obj 239 249 delwrite~ reverb-\$0 500;
#X obj 236 165 vd~ reverb-\$0;
#X obj 190 121 inlet~;
#X obj 194 318 outlet~;
#X obj 250 121 inlet;
#X obj 241 217 *~ 0.7;
#X obj 248 4 loadbang;
#X msg 244 38 100;
#X msg 283 40 200;
#X connect 1 0 3 0;
#X connect 1 0 5 0;
#X connect 2 0 5 0;
#X connect 4 0 1 0;
#X connect 5 0 0 0;
#X connect 6 0 7 0;
#X connect 6 0 8 0;
#X connect 7 0 1 0;
#X connect 8 0 1 0;
